<?xml version="1.0" encoding="UTF-8"?>
<svg id="Calque_1" xmlns="http://www.w3.org/2000/svg" version="1.1" viewBox="0 0 920 409">
  <!-- Generator: Adobe Illustrator 30.3.0, SVG Export Plug-In . SVG Version: 2.1.3 Build 182)  -->
  <defs>
    <style>
      .st0 {
        fill: #fefeff;
      }

      .st1 {
        fill: #a19f9e;
        fill-opacity: .21;
      }

      .st2 {
        fill-opacity: .98;
      }

      .st2, .st3, .st4 {
        fill: #caaa85;
      }

      .st3 {
        fill-opacity: .94;
      }

      .st5 {
        fill-opacity: .04;
      }

      .st5, .st6, .st7 {
        fill: #cac7c3;
      }

      .st6 {
        fill-opacity: 0;
      }

      .st8, .st9, .st10 {
        fill: #fefefe;
      }

      .st9 {
        fill-opacity: .85;
      }

      .st10 {
        fill-opacity: .62;
      }
    </style>
  </defs>
  <path class="st8" d="M576.74,100.57c5.39.09,6.85-.38,12.16-1.87,11.46,3.18,14.4,5.82,27.97,2.74,4.02,2.09,7.52,3.09,11.36,5.17,1.41.76,1.45,2.23,1.76,3.68,1.75.51,4.7,1.08,5.4,2.75,1.31,3.08,1.69,9.35,2.17,12.15.93,5.51,4.91,41.78,6.48,44.36,3.18-20.11,5.29-41.16,8.18-61.53,5.55,0,8.86.15,14.2-1.23,12.23,4.38,15.27,5.06,28.23,2.77.89.63,3.16,2.43,3.88,2.73,2.35.99,4.96,1.46,7.04,3.08.66,1.53.34,1.52.03,3.46,2.92.43,4.22.69,7.03,1.56-.88,7.94-1.95,18.61-3.05,26.35-1.57-4.28-1.63-10.47-3.49-12.74l-.66.03c-.63,1.46-.72,3-.8,4.57-.42,8.44-.88,73.02.68,77.05.89,2.28,3.91,5.11,2.8,7.7-.7,1.63-3.13,2.9-2.42,4.98.77,2.24,2.72,3.94,4.35,5.6-.89,1.24-3.45,4.68-3.75,5.98-2.7,11.83-1.76,26.08-1.83,38.32-.05,8.81-.23,20.14.32,28.71.93,6.19,2.35,12.46,3.65,18.6,1.18-2.07,1.9-11.71,2.08-14.56.69,3.12,3.61,19.16,4.57,20.42.21,1.24.31,1.98.38,3.24v1.55c-.54.68-7.39,3.37-9.75,4.74-13.43-4.98-16.01-3.85-30.28-3.32-3.52-2.19-11.52-4.79-12.72-8.54-.93-1.26-4.12-2.53-5.61-3.13.41-7.35,2.77-18.82,4.13-26.39.29,3.02.8,13.66,3.33,15.16l.8-.34c4.03-6.41,3.2-29.57,2.82-37.83l.13-6.1c.53-12.76-.15-25.54-2.01-38.17-.73.9-2.12,2.65-2.34,3.76-5.69,29.41-7.29,59.71-11.42,89.4-1.07,7.68-3.07,5.89-9.26,9.28-1.51-1.16-5.42-4.02-6.59-5.23-2.65-2.32-5.29-4.67-7.9-7.04-.4-2.48-.35-11.27-.49-14.43l-.4-4.61c-2.19-13.45-3.18-26.58-5.86-40.71-.29-3.44-1.6-9.84-2.16-13.48-1.06-6.83-1.84-13.4-3.66-20.05-2.41,4.25-3.72,32.29-2.74,36.83.09,10.54-.23,20.74.11,31.31,1.6,4.56,2.89,12.45,3.8,17.42l.78.13c.75-1.78.92-11.67,1.55-15.11,1.62,9.63,3.62,17.74,4.81,27.5-3.75,1.51-6.54,2.3-9.88,4.6-7.78-4.72-12.11-3.33-20.37-2.71-3.59-2.67-7.33-4.32-11.08-6.68l-.51-1.82c-1.38-1.88-3.93-2.44-6.11-3.14-.29-5.49,2.35-20.14,3.29-26.07,2.6,6.81.77,8.67,4.91,14.98.2-3.59.89-7.21.91-10.93.12-15.56.11-31.07.13-46.63,0-7.41.27-15.83-.37-23.22-.22-2.61-2.82-6.54-4.23-8.83,5.93-5.17,3.23-8.43-.38-14.04,2.66-6.31,5.34-15.17,4.91-21.91-.43-6.65,1.59-64.02-2.51-66.29-1.61,1.92-1.84,6.55-3.19,8.19-1.6-2.4-3-18.34-3.31-22.15"/>
  <path class="st4" d="M705.6,118.82c2.92.43,4.22.69,7.03,1.56-.88,7.94-1.95,18.61-3.05,26.36-1.57-4.28-1.63-10.47-3.49-12.74l-.66.03c-.63,1.46-.72,3-.8,4.57-.42,8.44-.88,73.02.68,77.05.89,2.28,3.91,5.11,2.8,7.7-.7,1.63-3.13,2.9-2.42,4.98.77,2.24,2.72,3.94,4.35,5.6-.89,1.24-3.45,4.68-3.75,5.98-2.7,11.83-1.76,26.08-1.83,38.32-.05,8.81-.23,20.14.32,28.71-2.1,3.18-1.17,9.09-2.85,12.81-1.29.21-1.59-.02-2.73-.57-1.65-2.17-1.08-25.79-1.08-30.47l.02-27.7c.01-8.36-.21-16.63,1.28-24.93.55-3.07,2.62-5.38,4.52-7.8-4.89-4.35-7.05-7.15-.89-11.95-3.6-4.46-4.84-6.79-4.88-12.67-.16-23,.08-46-.04-68.99,0-1.61,0-4.96,1.15-6.08l.67.28c1.28,2.49,2.07,8.02,2.61,10.92,1.82-7.74,2.33-13.08,3.04-20.95M661.11,223.7c-2.8-1.45-6.37-4.44-3.79-8.37,2.21-3.36,3.05-.8,3.21-5.99.53-16.68-.32-31.94,5.25-48.04,1.32,24.18,3.2,27.02-3.56,51.41,3.8,2.68,6.03,5.08,2.4,9.31-1.89,2.2.89,7.32,1.69,10.23-.73.9-2.12,2.65-2.34,3.76-5.69,29.41-7.29,59.71-11.42,89.4-1.07,7.68-3.07,5.89-9.26,9.28-1.51-1.16-5.42-4.02-6.59-5.23,2.44-1.64,5.92-3.08,8.66-4.33.86-3.59,1.31-10.24,1.8-14.19l4.45-36.46c1.76-15.49,1.99-37.33,9.49-50.78M611.02,206.32c-1.43-2.87-3.19-6.06-3.48-9.38-.82-9.52-.32-19.26-.36-28.84-.02-5.38-.27-11.21-.08-16.54,2.07,7.77,2.04,12.84,3.08,20.34,1.8,13.07,2.75,21.7,2.16,34.86.66.69,2.22,2,2.99,2.69.6,4.69-.05,7.49-.39,12.12-.1,1.41.96,5.99,1.29,7.56-2.41,4.25-3.72,32.29-2.74,36.83.09,10.54-.23,20.74.11,31.31-.95,2.27-1.17,8.65-1.52,11.71-.99,1.17-1.77,1.17-3.03.64-1.47-1.61-1.96-4.41-1.94-6.55.2-17.76.04-35.53.04-53.3,0-10.34-.42-20.34,4.14-29.96-2.44-5.52-3.11-7.89-.28-13.51M629.99,110.28c1.75.51,4.7,1.08,5.4,2.75,1.31,3.08,1.69,9.35,2.17,12.15.93,5.51,4.91,41.78,6.48,44.36-.19,6.66-2.12,17.87-3.22,24.66-.44-10.68-2.74-22.61-4.04-33.35-2.01-16.61-5.02-34.01-6.79-50.57"/>
  <path class="st4" d="M708.44,325.52c1.18-2.07,1.9-11.71,2.08-14.56.69,3.12,3.61,19.16,4.57,20.42.21,1.24.31,1.98.38,3.24v1.55c-.54.68-7.39,3.37-9.75,4.74-13.43-4.98-16.01-3.85-30.28-3.32-3.52-2.19-11.52-4.79-12.72-8.54,2.4.41,4.38,1.79,6.49,3.04,1.78.07,6.97-.33,9.02-.46,8.78-.56,13.39.83,21.41,3.81,3.83-2.46,5.02-3.29,9.55-3.97-.37-2.19-.61-3.7-.76-5.94M619.73,299.72c1.62,9.63,3.62,17.74,4.81,27.5-3.75,1.51-6.54,2.3-9.88,4.6-7.78-4.71-12.11-3.33-20.37-2.71-3.59-2.67-7.33-4.32-11.08-6.68l-.51-1.82c1.9.65,3.72,2,5.4,3.12,8.36-1.22,12.8-1.84,20.35,2.51,3.31-2.36,6.51-3.38,10.26-4.77-.6-2.45-.92-4.29-1.31-6.77l.78.13c.75-1.78.92-11.67,1.55-15.11"/>
  <path class="st8" d="M351.49,96.8c11.07,2.93,13.58,3.16,21.81,11.2,11.62,8.18,9.18,22.06,9.14,34.71l-.11,38.39c-.01,5.58-.46,13.21,1.14,18.53.66,2.2,4.43,5.36,6.24,7.03-4.65,4.08-7.49,8.82-1.02,13.04-8.21,9.82-6.49,17.06-6.36,29.39l.15,30.77c.05,14.78,1.46,28.26-9.88,39.74-4.67,4.73-9.25,6.66-15.5,8.5-10.13-3.53-13.28-2.67-23.32.56-7.05,2.27-14.24-2.17-19.23-7.14-14.82-10.63-14.3-15.85-14.33-32.68l.05-36.74c.06-12.29,1.82-21.64-4.83-32.49,3.71-5.29,5.92-8.19.16-12.93,6.45-9.66,4.77-20.14,4.74-31.37l-.11-35.84c-.02-6.57-.62-13.79,1.51-20.08,1.8-7.96,12.18-20.96,21.49-20.07,12.5,1.19,15.2,3.85,28.27-2.51M335.77,122.94c-1.07,6.78-.69,24.46-.62,32.54.12,14.58-.67,30.79.99,45.12.23,1.98,3,7.47,4.09,9.41-5.28,4.59-7.71,8.24-.51,12.68-.84,1.5-3.46,5.93-3.6,7.35-2.13,22.78-.46,46.15-.96,69.06-.06,3.23.05,6.46.31,9.68.34.05.69.1,1.03.15,6.3.86,10.75-1.5,11.07-8.39.45-9.68.23-19.48.23-29.18l-.02-26.62c-.02-12.18,1.43-18.58-6.46-28.53,4.62-5.05,8.25-8,.83-12.51.76-1.05,1.49-2.11,2.2-3.19,1.44-2.21,2.88-6.21,3.01-8.75.64-12.66.51-27.35.44-40-.04-7.16.49-29.77-.59-34.96-5.6.87-7.77,1.54-11.45,6.15"/>
  <path class="st4" d="M373.3,108c11.62,8.18,9.18,22.06,9.14,34.71l-.11,38.39c-.01,5.58-.46,13.21,1.14,18.53.66,2.2,4.43,5.36,6.24,7.03-4.65,4.08-7.49,8.82-1.02,13.04-8.21,9.82-6.49,17.06-6.36,29.39l.15,30.77c.05,14.78,1.46,28.26-9.88,39.74-4.67,4.73-9.25,6.66-15.5,8.5-10.13-3.53-13.28-2.67-23.32.56-7.05,2.27-14.24-2.17-19.23-7.14,16.87,6.05,19.66-6.3,36.11,1.21,23.71-7.8,25.37-22.76,25.35-44.81l-.1-30.8c-.09-12.36-2.26-23.04,6.42-32.98-6.34-4.69-4.57-8.91,1.09-12.9-9.53-8.59-7.53-13.67-7.51-25.76l.07-37.39c.02-10.68,1.08-19.95-2.68-30.09"/>
  <path class="st4" d="M333.8,204.11c-.99-1.87-1.98-3.74-2.85-5.67-1.54-3.43-1.73-7.17-1.97-10.89-.51-7.76-1.03-65.89.77-70.3.94-2.32,3.64-3.95,5.85-4.85,2.05-.83,4.81-1.48,6.93-.56,2.25.97,3.79,2.7,4.68,4.94-5.6.87-7.77,1.54-11.45,6.15-1.07,6.78-.69,24.46-.62,32.54.12,14.58-.67,30.79.99,45.12.23,1.98,3,7.47,4.09,9.41-5.28,4.59-7.71,8.24-.51,12.68-.84,1.5-3.46,5.93-3.6,7.35-2.13,22.78-.46,46.15-.96,69.06-.06,3.23.05,6.46.31,9.68-7.87-3.94-6.81-6.89-6.71-15.33.25-22.34-.64-44.85.57-67.14.17-3.06,2.46-6.49,4.11-8.98-6.96-4.42-4.95-8.56.36-13.2"/>
  <path class="st8" d="M462.18,93.87c2.96,2.23,5.59,3.13,8.65,5.05,1,.63.86,1.63,1,2.82,2.09,1.28,4.07,1.94,6.35,2.81-.8,7.65-2.24,15.77-2.5,23.35-1.14-2.95-1.97-5.7-2.84-8.73-.49-1.71-1.05-2.38-2.84-2.62l-.67,4.63c-1.09,17.16.42,36.18-.22,53.55-.4,11.09-1.32,21.49,4.71,31.12-5.52,11.8.58,9.11,1.02,13.49-.6.68-2.03,2.26-2.22,3.12-4.09,17.51-3.1,35.08-3.08,52.91l.13,45.44c-5.87.83-6.28.84-11.11,4.17-2.94-1.38-10.09-3.28-11.07-5.18l-.24-2.64c-1.87-.58-3.69-1.06-5.58-1.56-5.1-21.45-6.46-45.29-10.7-67.08-1.9-9.76-1.88-18.25-6.35-27.4-.57,1.01-1.55,2.82-1.62,3.96-1.26,21.34.13,43.38-.72,64.7-.05,6.87,1.56,13.53,2.42,20.4,2.31-2.46,2.33-11.51,2.66-15.59,2.16,10.46,3.76,16.54,3.43,27.39-1.53.13-3.54.27-4.94.72-.83.27-4.98,2.3-5.48,2.19-7.18-1.62-5.8-3.05-13.3.95-1.48-1-2.63-1.78-4.24-2.61-2.54-1.31-6.18-1.42-7.88-3.61l-.1-2.64c-2.03-1.14-3.87-1.5-6.11-2.07-.13-3.26,2.34-21,3.22-24.45l.51-.19c1.78,2.89,2.11,10.67,4.31,12.09l.08-.04c2.06-6.15,1.26-27.97,1.29-35.58.06-10.02.07-20.05.02-30.07-.05-10.22,1.75-14.76-5.35-22.65.13-.11.26-.23.39-.34,5.22-4.63,4.65-8.47.19-13.33l4.05-3.43c.29-2.17.47-4.35.55-6.53.3-8.27,1.06-75.71-2.01-79.02-2.43.64-1.91,6.84-3.63,9.32-.92-1.23-3.19-19.74-3.54-22.47,5.53-.66,7.2-.91,12.14-3.35,6.06,2.65,9.22,3.16,15.02-.25,3.86,1.8,11.03,4.25,12.16,8.44,1.88,1.02,3.64,1.75,5.4,2.67,1.31,6.48,11.35,60,12.18,60.7l.5-.15c-.06-19.87,1.36-33.73-1.92-54.02l-.45-.03c-1.22,2.12-3.18,8.93-4.03,11.57-.99-8.33-1.18-17.17-2.92-25.39,3.64-1.29,6.12-2.18,9.27-4.43l.2.11c6.9,3.71,9,3.27,15.81-.28"/>
  <path class="st4" d="M467.74,200.3c-6.53-9.09-5.01-17.83-5-28.59l.04-30.03c0-6.16-.48-24.07.07-29.29.99-1.06.48-.75,2.06-1.06,3.49,1.85,1.73,8.74,4.42,9.87-1.09,17.16.42,36.18-.22,53.55-.4,11.09-1.32,21.49,4.71,31.12-5.52,11.8.58,9.11,1.02,13.49-.6.68-2.03,2.26-2.22,3.12-4.09,17.51-3.1,35.08-3.08,52.91l.13,45.44c-5.87.83-6.28.84-11.11,4.17-2.94-1.38-10.09-3.28-11.07-5.18l-.24-2.64c1.36.5,3.52,1.8,4.85,2.54,4.33-3.25,5.87-3.92,11.14-4.7l-.05-52.27c0-15.37-.8-30.34,2.98-45.41.3-1.18,1.57-2.71,2.36-3.65-.49-4.86-7.19-2.73-.78-13.4M416.15,158.37c.1.3.2.59.3.9,2.67,8.55,5.14,26.85,5.01,36.17-.02,1.14-1.38,3.73-1.97,4.87,3.27,3.42,6.39,6.53,3.18,10.96-2.34,3.24,1.19,6.77,1.94,9.88-.57,1.01-1.55,2.82-1.62,3.96-1.26,21.34.13,43.38-.72,64.7-2.21,2.37-1.85,9.73-3.04,13.77-.96.45-.54.38-1.79-.05-2.29-3.06-.45-73.26-.8-82.79-.08-2.2,1.17-4.62,2.27-6.57-1.43-1.84-2.6-3.78-2.9-6.15-.23-1.83,1.98-5.57,1.86-7.32-.14-2-1.82-6.07-1.84-8-.09-11.36-.04-22.99.12-34.32M428.14,103.1c1.88,1.02,3.64,1.75,5.4,2.67,1.31,6.48,11.35,60,12.18,60.7l.5-.15c.71.83.31,30.91.08,34.19-1.43-5.15-2.98-15.42-4.05-21.15l-7.48-39.67-4.61-24.27c-.59-3.14-1.93-9.52-2.01-12.33"/>
  <path class="st4" d="M427.34,294.62c2.16,10.46,3.76,16.54,3.43,27.39-1.53.13-3.54.27-4.94.72-.83.27-4.98,2.3-5.48,2.19-7.18-1.62-5.8-3.05-13.3.95-1.48-1-2.63-1.78-4.24-2.61-2.54-1.31-6.18-1.42-7.88-3.61l-.1-2.64c2.58,1.21,3.65,1.66,5.9,3.45,6.41-3.77,7.04-2.79,13.81-1.09-.97-.24,8.95-3.12,10.4-3.32-.26-2.31-.43-3.48-.26-5.85,2.31-2.46,2.33-11.51,2.66-15.59M471.83,101.74c2.09,1.28,4.07,1.94,6.35,2.81-.8,7.65-2.24,15.77-2.5,23.36-1.14-2.95-1.97-5.7-2.84-8.73-.49-1.71-1.05-2.38-2.84-2.62.28-4.56.68-10.46,1.83-14.82"/>
  <path class="st8" d="M159.77,118.34c4.4,1.64,8.07,1.93,9.07,6.75,2.07.93,4.12,1.57,6,2.41l6.5,65c1.37,12.71-.92,22.98,9.65,31.97-5.2,4.79-6.61,10.94,1.46,13.24-6.4,12.55-3.68,19.72-3.01,33.23.62,12.53.53,26.25,2.83,38.58l.38.43.72-.22c1.61,1.37,2.75,10.02,4.04,13.21.88-3.5,1.8-7.01,2.44-10.56,1.29,7.95,3.73,16.14,5.41,24.12-4.55,2.51-6.06,3.65-9.63,7.43-2.58-1.27-4.62-2.43-7.61-2.42-5.97.02-15.57,1.74-19.01,7.08l-.67.09c-.94-.74-1.93-1.4-2.86-2.13-1.98-1.52-5.26-.35-7.24-1.66-.77-1.28-.67-3.23-.61-4.75-1.07.17-4.66-.37-5.93-.53-1.17-6.66-1.8-15.54-2.73-22.6.85,2.35,2.5,8.43,5.21,8.79,2.27-2.17,1.1-25.75,1.34-30.99-21.38,1.49-19.14,3.81-18.97,24.64.53,3.57.53,12.88.54,16.89l.44,2.72.36.07c1.52-3.17,4.04-13.34,5.46-17.42-.53,8.13.17,18.21.39,26.58-4.82,2.03-5.86,2.87-9.64,6.54-3.04-.5-6.06-1.11-9.06-1.83-4.03,1.38-5.46,2.2-8.93,4.74-4.7-2.88-8.97-2.25-9.95-5.03l.38-2.3c-2.37-.88-3.95-1.08-6.42-1.49-.2-5.52.44-11.7,1.03-17.2.96-1.26-.31-2.93,1.49-4.52,1.26,2.44,2.07,7.7,4.25,9.7l.74-.33c1-2.19.84-4.67.89-7.11.26,1.55.41,3.37,1.32,4.61l.54-.16c3.91-10.35,4.77-70.17,4.49-83.72-1.48-2.43-3.43-4.32-5.39-6.4l4.29-2.05c4.03-6.57,1.35-7.53-4.35-11.34,2.35-1.26,6.19-2.84,7.23-5.44,2.51-6.27,2.47-13.39,3.15-20.03l2.78-25.6c1.47-14.13,4.43-35.45,4.81-49.29,2.71-2.51,6.49-5.16,9.66-8.05,11.06,1.8,12.97,1,22.67-3.65M142.84,269.51c.62-.17,1.23-.36,1.83-.57,10.06-3.39,5.51-15.72,2.98-23.03-3.34,6.84-5.87,15.2-6.04,22.84.55.78.22.55,1.23.77"/>
  <path class="st4" d="M168.84,125.09c2.07.93,4.12,1.57,6,2.41l6.5,64.99c1.37,12.71-.92,22.98,9.65,31.97-5.2,4.79-6.61,10.94,1.46,13.24-6.4,12.55-3.68,19.72-3.01,33.23.62,12.53.53,26.25,2.83,38.58l.38.43c.15,2.61-2.78,12.69-4.26,14.41-.7-.36-.93-.5-1.07-1.38-2.76-16.49-2.79-33.92-3.77-50.58-.6-10.05-1.69-19.57-1.49-29.54.06-2.79,2.86-8.27,4.12-10.7-7.6-2.34-6.84-8.88-1.31-13.15-2.45-2.47-6.51-6.43-7.31-9.81-1.63-6.88-1.93-15.12-2.61-22.26-1.97-20.57-4.57-41.26-6.11-61.84"/>
  <path class="st4" d="M197.43,322.94c.88-3.5,1.8-7.01,2.44-10.56,1.29,7.95,3.73,16.14,5.41,24.12-4.55,2.51-6.06,3.65-9.63,7.43-2.58-1.27-4.62-2.43-7.61-2.42-5.97.02-15.57,1.74-19.01,7.08l-.67.09c-.94-.74-1.93-1.4-2.86-2.13-1.98-1.52-5.26-.35-7.24-1.66-.77-1.28-.67-3.23-.61-4.75,1.07.56,3.61,2.45,4.72,3.22,4.73-5.85,14.55-8.21,21.9-7.25,1.33.17,3.54,1.7,4.74,2.49,3.81-3.9,5.16-5.11,9.93-7.7-.65-2.75-1.06-5.18-1.52-7.98M131.56,292.96c6.01-3.83,20.74-6.99,23.98,1.85-21.38,1.49-19.14,3.81-18.97,24.64-3.17,3.29-2.29,12.9-6.35,14.49l-.93-.64c-1.02-2.91,1.33-36.71,2.28-40.34"/>
  <path class="st4" d="M143.38,321.72c-.53,8.13.17,18.21.39,26.58-4.82,2.03-5.86,2.87-9.64,6.54-3.04-.5-6.06-1.11-9.06-1.83-4.03,1.38-5.46,2.2-8.93,4.74-4.7-2.88-8.97-2.25-9.95-5.03l.38-2.3,3.1,1.81c3.34-2.3,5.29-3.46,9.11-4.73,3.06.65,6.13,1.26,9.21,1.81,3.53-3.79,4.7-4.53,9.42-6.71-.22-2.01-.57-4.27-.3-6.25l.44,2.72.36.07c1.52-3.17,4.04-13.34,5.46-17.42M143.21,178.55c5.98,15.74,2.24,29.97,1.53,46.53.46.41.91.83,1.34,1.28,4.35,4.46,2.23,8.57-1.48,12.22,1.17,2.45,2.35,4.7,3.05,7.33-3.34,6.84-5.87,15.2-6.04,22.84.55.78.22.55,1.23.77-15.25,2.37-3.46-25.22-.82-30.98-5-4.96-3-7.7.47-12.77-3.36-18.3-1.81-29.37.73-47.21"/>
  <path class="st8" d="M803.64,130.23c5.34.71,6.88.53,12.36,0,5.41,4.17,7.9,4.24,14.31,2.97,3.18,2.68,9.5,6.32,11.35,9.5,2.04,1.57,4.11,2.78,5.85,4.62,3.19,16.57,5.92,33.19,8.8,49.82.92,5.34,1.85,10.34,3.11,15.62,0-4.06-.16-9.47.03-13.44.02-12.38.59-30.1-1.28-42l-.62-.43c-1.31,1.32-3.32,7.47-4,9.4-1.12-8.38-2.29-16.46-2.67-24.91,3.9.14,4.79-.37,8.48-1.64,3.18,1.9,5.58,3.35,9,4.85,2.08-.29,4.71-.94,6.81-1.4,2.18,1.91,8.53,6.33,9.59,8.12,1.16,1.43,4.32,3.51,5.95,4.46-.6,6.79-1.37,16.94-2.9,23.43-.86-4.55-.85-11.07-5-13.48l-.87,5.62.03,48.82c-.01,7.97-.02,15.91.04,23.9.02,2.64,4.51,10.76,4.23,11.77-.9,3.34-1.9,4.73-1.7,9.83l3.61,3.81c-.6.51-2.14,1.86-2.36,2.6-4.55,15.5-3.63,30.65-3.62,46.61l.15,51.52c-4.73-.49-6.43-.43-10.87,1.76-3.7-3.38-9.12-5.42-11.1-8.68-1.5-1.46-3.8-2.72-5.63-3.83-5.73-30.26-7.38-64.33-14.82-94.38-.3-1.22-1.22-3.21-1.72-4.45-2.03,4.04-1.3,22.15-1.3,27.7l-.02,47.65c.31,4.19.83,9.29,1.52,13.45l1.24-1.11c.89-3.75,1.4-11.08,1.74-14.76,1.98,8.26,3.25,20.21,3.71,28.71-4.47-.2-6.17-.66-10.17,1.34-3.67-2.77-5.4-4.26-10.25-3.61-1.09.16-2.17.36-3.24.62-2.2-1.87-4.43-3.69-6.7-5.46-3.67-1.76-4.04-2.31-6.18-5.61l-5.08-1.91c-.22-5.22,2.59-20.96,3.48-26.71.76,3.53,2.34,13.31,4.33,15.45l.51-.2c-.11-3.22.91-6.35.86-9.29-.36-17.47.08-34.99,0-52.48-.05-10.48,1.49-18.04-4.84-27.01,5.67-5.02,4.38-8.06.4-13.89l3.74-2.49c1.05-8.35,1.52-79.79-1.24-85.09l-.65-.18c-2.22,2.36-2.74,8.87-3.21,12.23-1.19-8.91-2.17-18.73-3.18-27.73"/>
  <path class="st4" d="M880.59,250.67c-2.94-5.02-4.57-8.49-4.64-14.48-.26-23.07.32-46.18-.11-69.24-.04-2.35-1.1-5.2,1.73-5.99,1.86.81,2.85,7.34,4.34,10.39l.03,48.82c-.01,7.97-.02,15.91.04,23.9.02,2.64,4.51,10.76,4.23,11.77-.9,3.34-1.9,4.73-1.7,9.83l3.61,3.81c-.6.51-2.14,1.86-2.36,2.6-4.55,15.5-3.63,30.65-3.62,46.61l.15,51.52c-4.73-.49-6.43-.43-10.87,1.76-3.7-3.38-9.12-5.42-11.09-8.68,1.28.54,3.92,2.32,5.2,3.14,4-2.46,6.09-2.29,10.48-1.81v-50.42c-.01-9.25-.06-18.35.04-27.84.05-4.68,2.27-15.46,3.43-20.44l1.94-1.82c-.58-3.67-7.21-6.03-.82-13.41M832.11,239.74c-3.05-8.6-2.07-33.25-1.82-43.51,2.42,12.09,5.17,26.11,4.96,38.7-.01.97-1.23,3.77-1.69,4.81,2.71,3.44,3.49,4.43,4.54,8.64-2.33,7.06-3.33,4.18.06,12.23-2.03,4.04-1.3,22.15-1.3,27.7l-.02,47.65c-.45-1.66-.17-4.1-1.69-5.25-1.54,2.82.26,10.18-2.75,12.33l-.84-.26c-1.37-3.13-1.1-12.36-1.08-16.11.17-22.36-.32-44.77.3-67.12.07-2.42.71-4.23,1.95-6.29-2.58-4.93-3.91-8.46-.61-13.52M841.65,142.7c2.04,1.57,4.11,2.78,5.85,4.62,3.19,16.57,5.92,33.19,8.8,49.82.92,5.34,1.85,10.34,3.11,15.62,0-4.06-.16-9.47.03-13.44.57,3.84.43,11.71.32,15.82-1.4,5.62.66,22.94-1.09,25.68l-9.91-56.08c-2.36-13.28-5.48-28.83-7.1-42.04"/>
  <path class="st4" d="M841.35,333.53c1.98,8.26,3.25,20.21,3.71,28.71-4.47-.2-6.17-.66-10.17,1.34-3.67-2.77-5.4-4.26-10.25-3.61-1.09.16-2.17.36-3.24.62-2.2-1.87-4.43-3.69-6.7-5.46,6.91-1.65,8.35-1.34,13.88,2.83,4.05-2.06,5.58-1.66,10.1-1.45-.24-2.67-.4-4.43-.31-7.12l1.24-1.11c.89-3.75,1.4-11.08,1.74-14.76M884.73,151.32c1.16,1.43,4.32,3.51,5.95,4.46-.6,6.79-1.36,16.94-2.9,23.43-.86-4.55-.85-11.07-5-13.48.23-3.6,1.31-10.85,1.95-14.41"/>
  <path class="st7" d="M858.66,240.82c1.75-2.74-.31-20.06,1.09-25.68-.09,7.67.5,26-.22,32.41-.23-1.69-.8-5.17-.87-6.73"/>
  <path class="st8" d="M528.49,80.75c10.16,3.4,16.69,2.5,27.06,1.36-1.85,2.75-2.46,3.86-3.81,6.89,3.57-.62,6.35-1.01,9.95-1.36-6.29,10.13-4.58,20.66-4.58,32.2v38.97s0,27.39,0,27.39c0,9.59-1.37,11.98,3.53,20.49-4.72,4.7-6.21,9.68-.41,14.44-5.02,9.24-2.77,15.25-2.97,25.39-.04,2.06.29,4.47-.07,6.48,1.78-.57,2.33-1.07,3.93-.63,1.13,1.29,1.03,4.3,1.76,6.48,1.76-.61,2.97-1.36,4.6-1.01.89,1.63.48,3.52,1.07,5.67l.96,1.15c1.98,2.31,4.11,4.07,6.67,5.7-5.64,3.94-6.29,5.64-10.07,11.31-3-.11-6.01-.2-9.01-.27.26,7.23.16,17.74-.12,25.03.9,5.02,1.99,10.39,2.52,15.42,2.05-2.11,2.81-10.03,3.29-13.24,1.46,9,2.7,20.37,4.51,28.94-5.64,1.02-7.11,1.45-11.51,5.37-9.24-4.36-15.55-3.86-25.23-1.33-3.02-3.42-4.29-4.62-9.07-5.23-4.58-.58-4.28-1.26-3.49-5.26-2.03-.5-4.68-.61-6.81-.77.91-7.19,3.52-22.68,5.49-29.38,1,4.28.67,12.14,3.53,14.42l.87-.14c2.67-4.48,1.9-28.73,1.85-35.19-8.32-.93-18.78-1.08-27.3-1.38-.26-1.78-.48-3.57-.66-5.36-5.78-.04-4.55.31-6.88-4.86-2.06-4.64-5.78-8.33-10.44-10.35,5.96-18.44,7.92-26.09,9.02-45.35l.46-.34c6-4.57,5.8-9.16,1.46-14.86,8.94-19.79,12.53-40.74,17.83-61.75,2.82-11.17,5.75-23.29,7.67-34.58.75-4.44.51-12.34.42-17.01,6.54.52,8.2-.57,13.98-3.44M506.45,250.49l16.47.68c.5-21.78.07-45.88-.09-67.74-1.51,2.66-4.33,16.36-5.19,19.98-3.77,15.71-6.91,31.46-11.19,47.07"/>
  <path class="st4" d="M551.73,88.99c3.57-.62,6.35-1.01,9.95-1.36-6.29,10.13-4.58,20.66-4.58,32.2v38.97s0,27.39,0,27.39c0,9.59-1.37,11.98,3.53,20.49-4.72,4.7-6.21,9.68-.41,14.44-5.02,9.24-2.77,15.25-2.97,25.39-.04,2.06.29,4.47-.07,6.48-1.86-.27-4.18-.86-6.05-1.28-.4-10.04-.17-20.6.11-30.65.06-2.17,3.83-4.1,1.86-6.43-4.39-5.22-3.86-9.51,1.65-13.46-.8-1.17-3.27-4.63-3.41-5.83-.55-4.66-.36-9.91-.34-14.61l.07-23.89-.04-41.87c0-7.57-.39-18.91.72-25.99M569.49,264.65c1.98,2.31,4.11,4.07,6.67,5.7-5.64,3.94-6.29,5.64-10.07,11.31-3-.11-6.01-.2-9.01-.27.26,7.23.16,17.74-.12,25.03-1.66,1.92-1.7,6.91-3.53,9.75-1.27.34-.72.36-2.21-.44-.42-2.17-.23-10.33-.22-12.95l.02-26.88,8.97.08c3.33-5.63,4.6-7.06,9.5-11.33"/>
  <path class="st4" d="M562.77,308.6c1.46,9,2.7,20.37,4.51,28.94-5.64,1.02-7.11,1.45-11.51,5.37-9.24-4.36-15.55-3.86-25.23-1.33-3.02-3.42-4.29-4.62-9.07-5.23-4.58-.58-4.28-1.26-3.49-5.26,3.17,1.3,4.13,2.19,6.06,5.03,9.38-2.75,16.61-3.11,25.4,1.38,4.35-3.79,5.8-4.86,11.53-5.53-.87-3.89-1.14-6.13-1.49-10.12,2.05-2.11,2.81-10.03,3.29-13.24M494.97,273.3c7.52.07,20.63.51,28.01,1.24l-.06,5.5c-8.32-.93-18.78-1.08-27.3-1.38-.26-1.78-.48-3.57-.66-5.36M562.86,258.85c1.76-.61,2.97-1.36,4.6-1.01.89,1.63.48,3.52,1.07,5.67-2.47-1.1-3.97-2.67-5.67-4.65M522.72,148.99c.45,4.95.22,13.04.27,18.27.04,4.16.22,12.27-.15,16.18-1.51,2.66-4.33,16.36-5.19,19.98-3.77,15.71-6.91,31.46-11.19,47.07l-7.52-.1c2.67-9.97,5.02-21.29,7.4-31.46l16.38-69.94Z"/>
  <path class="st8" d="M715.19,119.17c5.68-.41,7.26-.22,10.44-5.21,16.54,10.99,18.31,3.41,35.78,5.99,4.01.59,14.72,5.92,21.05,7.35l5.46-2.89c.96,2.4,1.42,3.13,2.8,5.25,2.41.93,3.96,1.29,5.25,3.48,1.84,3.15,3.54,3.56,6.86,5.04-3.68,7.88-2.22,19.16-2.4,27.71-.09,4.14-.36,17.65.08,20.29,1.93,11.67,5.04,7.01-4.35,13.62-1.53,1.08-4.84,16.45-6.12,20.49-.57-5.32-1.36-13.93-2.87-19.02-1.2,4.84-1.72,7.8-3.37,12.65-1.71-13.57-.56-20.06-13.1-27.98.2-.34.4-.68.58-1.03,3.32-6.13,2.87-35.96.83-42.93-14.05-.45-10.69,14.52-10.71,25.38v36.7c.02,4.34-.24,15.92.6,19.69.66.1,1.07-.09,1.71-.28,1.36-1.14,1.72-3,2.27-4.72-1.65-3.66-2.67-6.04-3.93-9.88,1.27-3.06,4.06-7.83,7.96-7.01,1.52,1.64,1.47,4.28,1.8,6.77,1.88-.33,3.73-.69,5.64-.82.16,2.3.26,4.59.72,6.86,6.53,7.75,13.27,13.62,3.44,22.38,2.6,2.24,4.38,3.75,6.64,6.3-2.34,1.24-4.66,2.5-6.98,3.79.57,1.03,1.35,2.5,2.07,3.41,8.17,10.48-1.58,13.68-8.43,20.38l1.7,5.31c-3.49-1.82-5.33-2.55-7.6-5.86-2.97-2.78-4.62-2.52-7.05-6.92-1.54,4.01-.16,60.28-.54,68.6,2.44.7,5.61,1.91,8.11,1.13,1.59-.5,2.65-1.48,3.41-2.95,2.81-5.41,1.95-33.33,1.1-40.26-.32-2.66-1.07-5.16-1.86-7.71,1.91-.42,4.11-.76,6.05-1.12,6.23-5.63,4.78-11.94,7.47-20.24,1.42,7.88.55,9.48,3.33,18.62.61,2.7,2.48,3.9,4.72,5.33.5.32,1.01.62,1.53.91.94.85,2.33,2,3.02,3,.75,1.61,4.23,3.27,6.18,5.02-5.98,9.94-1.74,41.38-2.61,53.94-.07.97,1.72,3.58,1.08,5.44-2.53,1.29-5.72,1.47-8.51,2.23-11.81-3.59-15.78-4.38-28.26-4.38-4.84,0-15.02-4.7-20.26-5.24-10.25-1.07-14.42.99-23.92-6.52l-.59-2.19c-1.64-1.62-3.78-1.99-5.95-2.46-.06-1.09-.19-2.17-.38-3.24.29-7.77,1.27-18.84,3.26-26.17.51,4.52.46,9.72.94,14.29.09.79,1.01,1.45,1.66,1.85l.84-.22c1.67-1.98,2.53-8.02,2.61-10.59.33-11.14.21-22.47.22-33.64,0-11.14.35-22.76-.4-33.84.66-1.84-4.98-9.76-4.68-10.38,2.28-4.69,5.68-6.65-.85-12.95,2.17-2.56,5.34-7.25,5.5-10.77.45-9.8.38-19.84.29-29.68-.11-12.24.64-24.7-1.31-36.8-.49-3.08-.43-6.29-1.2-9.37-.96-.44-.52-.4-1.59-.1-1.82,1.95-1.77,11.12-1.93,14.35-.7-3.63-1.51-7.8-1.76-11.45-.4-5.93-.07-10.9-1.5-16.76"/>
  <path class="st4" d="M798.32,288.79c.75,1.61,4.23,3.27,6.18,5.02-5.98,9.94-1.74,41.38-2.61,53.94-.07.98,1.72,3.58,1.08,5.45-2.53,1.29-5.72,1.47-8.51,2.23-11.81-3.59-15.78-4.38-28.26-4.38-4.84,0-15.02-4.7-20.26-5.24-10.25-1.07-14.42.99-23.92-6.52l-.59-2.19,4.08,2.6c4.34-.02,11.38-.2,15.3.91,11.96,3.4,22.25,5.91,34.74,5.78,2.94-.03,9.17,2.45,12.08,3.57,3.35-.75,6.69-1.52,10.02-2.31-1.35-2.74-2.39-5.23-2.39-8.67,0-15.22-.66-31.27.43-46.39.06-.88,2-3.05,2.64-3.79"/>
  <path class="st4" d="M755.58,327.49c-.87-14.52-.15-36.06-.14-51.09.03-5.68,0-11.35-.08-17.03-.09-4.52-2.7-22.29,9.34-14.01,5.09,3.5-2.62,11.49-2.71,18.11-1.54,4.01-.16,60.28-.54,68.6-2.75-1.53-3.62-2.41-5.87-4.57M762.02,223.75l-.36-.07c-4.77-.99-5.96-3.89-6.06-8.48-.48-22.69-.06-45.45-.17-68.15,0-2.39-.06-6.37,1.59-8.22,4.47-5.01,12.08-2.15,15.11,3.16-14.05-.45-10.69,14.52-10.71,25.38v36.7c.02,4.34-.24,15.92.6,19.69M795.97,133.15c1.84,3.15,3.54,3.56,6.86,5.04-3.68,7.88-2.22,19.16-2.4,27.71-.09,4.14-.36,17.65.08,20.29,1.93,11.67,5.04,7.01-4.35,13.62-1.53,1.08-4.84,16.45-6.12,20.49-.57-5.32-1.36-13.93-2.87-19.02,1.76-7.7,2.89-8.02,9.73-11.53-4.25-9.39-4.07-46.54-.94-56.6M771.82,208.63c1.88-.33,3.73-.69,5.64-.82.16,2.3.26,4.59.72,6.86,6.53,7.75,13.27,13.62,3.44,22.38,2.6,2.24,4.38,3.75,6.64,6.3-2.34,1.24-4.66,2.5-6.98,3.79.57,1.03,1.35,2.5,2.07,3.41,8.17,10.48-1.58,13.68-8.43,20.38l1.7,5.31c-3.49-1.82-5.33-2.55-7.6-5.86l.61-.45c.24-1.51-.42-3.46-.81-4.99,5.55-5.41,8.56-5.52,12.34-13.28-1.04-2.5-4.75-7.63-6.42-10.09l7.45-3.96c-2.2-2.1-4.67-4.27-6.93-6.34,10.69-8.22,1.93-15.02-3.45-22.66"/>
  <path class="st8" d="M76.63,138.47c1.26-.83,2.54-1.62,3.85-2.36,3.15-.43,4.06,2.07,7.09,1.97,1.11-.04,2.3.03,3.43.01l-1.59,5.22c2.93.17,5.2.21,8.13.16-3.46,10.13-3.06,18.9-2.9,29.47.15,9.99-1.54,18.21,3.94,27.02-4.99,3.32-6.7,4.71-8.19,10.71-1,4.03-1.03,15.08-2.81,17.91l-.76.03c-2.25-4.74-.42-14.57-3.23-19.64-.86,3.6-.24,10.67-2.4,13.49l-.69.06c-3.82-4.57,2.98-20.77-10.73-22.25,4.23-7.03,3.78-11.63,3.42-19.57-.32-7.1.17-14.48-1.21-21.48-27.6,2.57-1.16,67.11,6.77,80.71l.5.76c1.77,2.66,3.71,3.66,6.22,5.66-.43,1.04-1.22,3.13-1.71,4.04l-.87,4.34c2.11.8,4.59.88,6.86,1.08-2.13,10.81-1.16,11.82,2.54,22.23,5.7,16.04,7.04,32.2,9.75,48.71l.64.46c-1.8,1.59-.53,3.25-1.49,4.52-5.44,14.44-7.72,27.51-23.09,34.68-10.68,4.98-20,2.88-29.36,5.03l-3.59,3.94-2.43-3.84c-1.24-.53-3.32-1.28-4.19-2.16-2.05-3.7-3.23-4.29-7.25-5.14,1.92-4.13,2.15-6.61,2.06-11.18-.28-14.28.74-28.86-.89-43.04-.12-1.06-2.87-5.21-3.65-6.56,11.66-7.73,10.87-14.9,12.24-27.89,1.08,4.59,2.28,14.75,4.97,17.92,1.36,1.52,2.18,1.9,4.21,2.41,1.67.44,3.13.48,4.06,1.63-.43,1.29-.91,1.89-1.66,3.02,2.74.66,5.85,1.34,8.49,2.2-6.46,10.44-4.07,34.53-3.51,47.2,2.12-.31,4.42-.64,6.39-1.53,3.13-1.42,4.89-4.08,6.06-7.21,5.12-13.75-4.33-53.12-11.71-65.72-2.84-4.86-8.33-7.56-11.05-12.14-1.08-1.82.71-5.96-.49-8.56-1.02-.89-4.1-1.26-5.66-1.57-.72-3.14,1.4-6.67.23-11.88-.9-4.71-2.42-8.96-3.47-13.66-5.15-22.98-17.44-55.69.13-75.93,4.62-5.32,17.29-12.12,24.25-13.28,1.91-.32,11.61.09,14.38,0"/>
  <path class="st4" d="M82.9,254.74c2.11.8,4.59.88,6.86,1.08-2.13,10.81-1.16,11.82,2.54,22.23,5.7,16.04,7.04,32.2,9.75,48.71l.64.46c-1.8,1.59-.53,3.25-1.49,4.52-5.43,14.44-7.72,27.51-23.09,34.68-10.68,4.98-20,2.88-29.36,5.03l-3.59,3.94-2.43-3.84c-1.24-.53-3.32-1.28-4.19-2.16,1.35-.56,2.99-2.4,4.1-3.5,2.4-.47,4.81-.67,7.24-.87,7.42-.34,13.76-1.38,20.8-3.7,13.17-4.35,21.79-22.92,23.52-35.89,2.86-21.4-6.98-46.46-12.31-67.07-.21-.82.71-2.84,1.04-3.62M89.41,143.31c2.93.17,5.2.21,8.13.16-3.46,10.13-3.06,18.9-2.9,29.47.15,9.99-1.54,18.21,3.94,27.02-4.99,3.32-6.7,4.71-8.19,10.71-1,4.03-1.03,15.08-2.81,17.91l-.76.03c-2.25-4.74-.42-14.57-3.23-19.64.64-7.72,2.39-10.7,9.07-14.57-5.17-7.02-4.27-13.87-4.23-22.17.05-9.6-.39-19.41.98-28.92M78.76,239.94c-.45-.23-.88-.48-1.31-.74-11.6-7.06-30.95-67.29-21.39-80.79,3.27-4.62,14.29-9.48,15.93.82-27.6,2.57-1.16,67.11,6.77,80.71"/>
  <path class="st4" d="M52.58,300.55c2.74.66,5.85,1.34,8.49,2.2-6.46,10.44-4.07,34.53-3.51,47.2-1.42-.13-3.79-.1-4.55-1.65-3.8-7.62-2.38-17.07-2.67-25.34-.28-7.98.24-14.69,2.24-22.41M79.26,240.69c1.77,2.66,3.71,3.66,6.22,5.66-.43,1.04-1.22,3.13-1.71,4.04-3.19-.55-4.45.41-6.4-2.57-.43-2.15,1.01-5.09,1.89-7.13"/>
  <path class="st8" d="M241.68,106.74c4.8,2.11,7.72,1.82,12.84,1.49l-1.38,5.56c-.87,3.45-2.45,9.51-2.85,12.92-.56,1.86-1.2,3.84-1.61,5.73l.08,52.85c0,7.66-.25,16.8.41,24.41.2,2.27,2.71,5.3,4.29,7-4.64,4.18-5.26,9.89.38,13.48-6.82,11.25-5.15,19.4-5.12,32.16l.1,39.01c0,3.47.24,12.57-.33,15.5,26.03,4.25,18.13-20.8,19.36-36.57.32-4.05-1.45-8.9-3.06-12.45,6.43-6.36,8.21-7.88,9.31-17.3.22-1.88.61-4.58,1.36-6.36.96.57,1.65,8.27,2.38,10.17.85,2.21,1.18,2.88,2.38,4.92,1.74,1.83,2.44,2.42,4.75,3.46l3.13,2.2c.81,3.24,3.87,3.98,6.78,5.39-3.13,12.94-4.03,20.97-3.41,34.39.35,7.53-.99,17.04,4.46,23.37-4.28,1.82-8.74,3.64-12.95,5.57-2.84-.71-4.35-1.07-7.25-1.37-3.92,1.79-7.95,3.56-11.78,5.53-9.79-4.8-25.63-2.3-35.58,1.1-1.28.44-2.54.9-3.8,1.39-1.35-.64-3.02-1.45-4.42-1.92-2.3-.78-7.54-.95-8.86-3.25-.15-1.35-.18-2.02-.14-3.38-2.09-.24-4.19-.46-6.29-.65-.12-3.75,1.8-22,3.09-25.01l.55-.1c2.03,3.58.48,5.72,4.64,12.4.4-2.79.94-6.3.96-9.1.22-23.76.15-47.53.15-71.29.38-1.81-4.56-7.94-4.23-8.83,2.49-6.66,6.2-6.21-1.19-13.96,6.07-13.92,5.9-27.05,5.47-41.9-.41-14.2,1.3-33.18-2.38-46.72l-.5-.16c-1.85,1.7-2.49,9.33-2.88,12.13-1.82-8.27-2.59-16.07-3.62-24.47,4.05-1.47,5.26-2.08,9.15-4.23,11.52,1.73,17.19.91,27.62-3.09"/>
  <path class="st4" d="M247.32,211.13c-3.32-3.55-4.37-4.71-4.57-9.79-.24-5.95-.14-11.88-.15-17.83l-.02-31.83c0-8.51-.21-19.55.31-28.14.06-.92.6-1.11,1.22-1.46l.82.37c1.12,1.48,2.5,7.61,3.07,9.72l.68.27.08,52.85c0,7.66-.25,16.8.41,24.41.2,2.27,2.71,5.3,4.29,7-4.64,4.18-5.26,9.89.38,13.48-6.82,11.25-5.15,19.4-5.12,32.16l.1,39.01c0,3.47.24,12.57-.33,15.5-6.24-1.47-5.87-4.01-5.88-9.54-.03-22.45-.07-44.91.08-67.36.05-7.36,1.17-9.35,4.9-15.46-5.66-3.91-5.68-8.97-.27-13.36"/>
  <path class="st4" d="M288.1,264.93c.81,3.24,3.87,3.98,6.78,5.39-3.13,12.94-4.03,20.97-3.41,34.39.35,7.53-.99,17.04,4.46,23.37-4.28,1.82-8.73,3.64-12.95,5.57-2.84-.71-4.35-1.07-7.25-1.37-3.92,1.79-7.95,3.56-11.78,5.53-9.79-4.8-25.63-2.3-35.58,1.1-1.28.44-2.54.9-3.8,1.39-1.35-.64-3.02-1.46-4.42-1.93-2.3-.78-7.54-.95-8.86-3.25-.15-1.35-.18-2.02-.14-3.38,2.43.7,4.72,2.02,6.98,3.19,1.78-.76,3.6-1.43,5.44-2.02,9.79-3.12,24.19-5.57,33.76-.58,4.54-1.86,7.81-4.03,12.9-5.68,2.15.56,4.64.91,6.85,1.28,4.16-1.83,8.24-3.63,12.48-5.28-7.51-12.42-3.55-30.98-4.04-45.2-.1-3.06,2.87-8.51,2.6-12.52"/>
  <path class="st8" d="M144.97,381.82c3.58-1.16,7.95-2.04,11.67-2.71,11.55-2.09,23.05-4.35,34.62-6.33,43.32-7.1,86.92-12.29,130.69-15.56,10.41-.7,20.95-.85,31.37-1.79,11.07-1,22.3-.59,33.35-1.25l-.24,9.4c-42.28-.24-84.55,1.34-126.69,4.74-36.09,2.66-78.57,6.98-114.07,14.4l-.69-.9Z"/>
  <path class="st0" d="M527.62,354.3c21.57.87,42.87,1.45,64.46,2.92,17.55,1.31,35.07,2.97,52.55,4.98,41.88,4.19,83.49,10.72,124.64,19.54l-.92.98c-34.28-7.45-78.55-11.83-113.61-14.39-42.24-3.45-84.62-5.03-127.01-4.72-.18-3.18-.15-6.13-.12-9.32"/>
  <path class="st8" d="M433.14,332.89c.76,2.54-2.55,7.95.65,10.33,9.48,7.04,33.89,6.99,42.09-2.13-.57-3.78-1.01-5.54-2.12-9.21,11.67,13.76,3.16,19.88-10.12,24.08.86,1.83,1.83,3.5,1.81,5.52-1.24,3.79-4.29,7.04-5.96,11.57-1.68,4.59-1.49,10.86-3.78,14.16-1.47.56-.67.29-2.18-.4-.3-.14-.1.75-1.58.54-2.38-2.2-2.55-12.85-4.3-16.3-3.41-6.71-8.2-7.92-3.51-15.07-4.64-1.32-9.75-2.83-13.12-6.49-5.08-5.53-3.02-12.02,2.1-16.59M309.69,32c1.02.11,3.29.45,4.07,1.12,7.05,6,6.33,24.49,1.91,31.98-1.45,2.46-3.73,3.21-6.27,3.71-4.86-.07-8.02-3.27-8.54-8.03-1.01-9.25-3.26-26.32,8.83-28.77M309.48,64.72c1.41-.8,2.75-1.46,3.14-3.55,1.14-6.22,1.69-17.11-.54-23.02-.36-.95-2.02-1.63-2.91-1.96-4.86,3.79-4.04,10.96-4.16,16.62-.09,4.12.12,10.23,4.48,11.9"/>
  <path class="st4" d="M240.85,44.97c4.11,2.4,5.57,3.49,1.43,6.92-5.79,4.8-11.65,9.51-17.5,14.23l-5.34-.03c-2.34,2.07-4.85,4.22-7.08,6.39,13.96.42,30.62-5.28,43.75-9.16,1.43-.42,2.03.06,3.06.85.7,1.62.65.95.31,2.55-3.96,5.19-25.03,8.51-32,9.86-6.34,1.22-16.18.08-21.58.69l-1.09.09c-1.58-.65-1.07-.21-1.96-1.59.42-2.92,3.17-1.67,5.93-3.85,10.4-8.23,21.58-19.21,32.1-26.96M666,66.52c-5.22-3.83-10.09-8.18-15.15-12.21-1.68-1.33-4.06-2.76-4.38-5.04-.27-1.99.64-2.94,2.26-3.67,2.49.07,14.13,10.94,16.93,13.24,4.93,4.06,11.69,8.93,16.04,13.51.49.52.97,1.05,1.43,1.6,1.76.12,3.36.06,4.76,1.12l.17.75c-.74,1.08-1.32,1.23-2.49,1.74l-.69-.33c-16.02,1.64-38.46-1.84-53.08-9.28-.79-.4-.64-1.73-.64-2.5.89-1.51.39-1.07,1.84-1.79,4.63-.02,20.33,6.21,26.47,7.15,6.4.99,13.21,1.39,19.48,2.34-3.19-2.3-5.3-4.29-8.17-6.95l-4.78.31Z"/>
  <path class="st8" d="M506.31,29.3c1.27.13,1.56.13,2.7.78,2.99,4.14,5.44,19.32,5.57,24.39,1.05-5.1,3.8-20.27,5.81-24.02.9-.55,1.71-.28,2.82-.13,1.61,1.91,3.95,33.93,2.99,35.37-1.25.29-1.41.3-2.67.04-1.8-1.76-1.92-13.42-2.14-16.63-.09-1.59-.07-3.38-.69-4.82-1.58,3.17-2.41,17.2-4.65,21.19l-.94.25c-3.39-1.41-5.71-19.8-6.57-24.09-.02,5.26-.49,10.55-.67,15.81-.1,2.9.28,8.12-3.99,7.41-1.78-2.53,1.45-32.01,2.45-35.56M558.44,31.88c1.41.18,2.59.3,3.3,1.63,4.1,7.65,5.45,16.86,8.39,24.98-.45-3.75-1.98-22.76-.14-25.41,1.61-.06,1.82-.01,3.35.5,1.03,3.39.53,29.25.58,34.17-.24.41-.58.65-.94.99-1.24.24-1.39.2-2.56-.32-2.81-2.65-7.04-19.19-8.43-23.9.09,6.61.25,13.48.25,20.11,0,.87-.75,2.7-1.47,3.18-1.12.75-.92.65-1.99.47-.93-.83-1.32-2.78-1.28-3.93.16-5.21-1.3-29.53.95-32.48M415.63,28.35c1.35-.02,1.55-.01,2.86.3,3.59,2.61,7.49,19.4,9.46,24.86-.68-7.11-.88-14.31-.83-21.44.01-1.59,1.06-3.96,3-3.66,2.57,3.17,1.61,29.63,1.42,35.15-1.49.21-2.03.35-3.5,0-2.58-2.15-6.91-19.42-8.68-24,.61,5.86,1,15.81.43,21.83-.11,1.19-1.13,2.27-2.24,2.88-1.26-.11-.9.11-1.59-.65-1.28-4.9-.84-29.68-.32-35.24M328.38,31.65c7.17-.49,15.21-1.75,14.2,9.73-.34,3.8-1.85,6.03-4.86,8.33,1.25,4.02,5.55,12.23,5.64,15.93l-.5.43c-4.64.85-4.65-2.12-5.95-5.94-1.24-3.5-3-7.58-4.48-10.99.23,4.05,1.7,14.55-1.15,17.4-1.66.61-.98.57-2.63.29-1.1-1.71-1.01-32.15-.29-35.17M337.05,45.42c1.88-4.65,1.99-10.19-4.34-10.45.02,3.33-.79,9.57.88,11.6,1.33.23,2.26-.48,3.46-1.15M372.05,29.37c4.11-.58,12.28.47,11.11,6.12-.91,1.42-1.92,1.66-3.51,2.32-.97-2.13-2.29-5.81-5.16-5.12-4.4,3.88-2.93,17.71-2.82,23.27.04,2.13.72,4.02,2.71,4.99,4.23-.04,6.36-7.75,4.87-10.44-.61-1.11-1.8.03-3.6-3.55,1.65-1.13,6.38-1.02,8.46-1.06.17,7.57-.23,21.94-11.3,19.28-8.55-2.05-7.57-23.5-5.46-29.79,1.04-3.09,1.92-4.62,4.69-6.03M482.55,28.85c3.82.09,9.38-.15,12.52,2.15l-.27,1.18c-2.35,1.08-5.06.83-7.57.7.16,3.48,0,7.66-.26,11.14,3.02.11,5.4-.49,7.4,2.07-.26,3.23-4.87,2.36-7.18,2.21.16,2.14,0,5.53-.06,7.77-.06,1.53-.06,2.33.07,3.85,2.14,1.23,5.67-1.06,8.18,1.51.29,4.65-9.43,3.06-12.85,3.03-.61-9.03-.23-26.32.03-35.61M393.58,28.73c2.59-.03,9.84-.38,11.79.68.04,1.72.23,1.08-.67,2.46-1.58.87-4.34.56-6.25.51.03,3.94.06,7.47-.18,11.42,2.86-.05,5.71-.86,7.57,1.61-.69,3.17-4.9,2.7-7.39,2.62l.05,9.61c-.52,4.75,4.77,1.22,7.07,3.2.37,1.11.12,1.51-.3,2.58-1.31.68-9.62.87-11.68.97-.52-10.46-.2-25.01,0-35.66M535.99,30.97c3.67.03,9.46-.01,12.48,2.21l-.31,1.23c-2.2,1.01-5.32.74-7.72.65v11.2c2.96,0,6.37-.58,7.74,2.54-1.16,2.59-5.52,1.7-7.7,1.45v9.64s.02,2.32.02,2.32c2.32,1.46,5.41-.37,7.84,1.75.29,4.02-9.36,2.52-12.41,2.46-.54-10.31-.25-25.09.05-35.45M291.18,34.39h.94s.61.69.61.69c-.01.98-.13,1.06-.65,1.94-2.73,1.73-4.17,1.46-7.4,1.46.05,3.71.21,7.77-.23,11.43,2.83-.4,5.75-1.47,7.58,1.1l-.34.93c-2.48,2.34-3.67,2-7.14,2.11.19,3.9.14,8.2.18,12.13.09,3.04-.66,4.88-4.05,4.5-2.1-2.25-1.22-30.88-1.06-35.81,4.45.05,7.13-.09,11.55-.49M602.77,35.09c2.28-.1,5.52.28,7.02,2.18.35,1.44.37,1.62.1,3.08-1.82,1-3.93-1.33-6.03-.12-6.53,3.74,4.09,12.39,6.1,16.51,3.08,6.32,2.72,11.45-3.79,14.96-3.18-.07-9.58-.32-7.34-5.56,2.04-.5,4.19,1.76,6.28.45,6.78-4.26-4.04-12.85-6.2-17.24-3.02-6.18-2.47-10.96,3.86-14.24"/>
  <path class="st5" d="M791.69,267.49c-1.36-6.77,14.16-5.6,18.14-5.07-.05,1.92.11,7.89-1.17,9.21-.87.9-2.15.12-2.59,1.56,1.72,1.4,2.27,1.41,2.94,3.33-.74.64-1.46.27-1.61.42-2.67,2.49-5.19,3.2-7.83.23-1.52-1.71-1.2-4.16-3.79-4.04-1.15,0-1.29-.35-2.14-1.06-.5-1.51-.56-1.71-.37-3.29.7-1.05.29-.73,1.65-1.13l-1.61-.49c-.75,1.03-.21,4.4-.48,6.33-.47-2.06-.12-3.99-1.15-6"/>
  <path class="st8" d="M439.77,28.53c2.92-.17,12.14-1.84,13.9.08-.15.48.41,2.77-.15,2.98-1.27.5-4.09-.37-4.13.87-.07,2.26.14,6.68.14,8.98v19.1c-.12,1.22-.13,1.49-.64,2.65-1.43.77-2.55.71-3.9-.11-1.03-3.56-.66-25.59-.65-30.92-1.51-.04-3.66.13-4.79-.74-.4-1.51-.23-1.2.2-2.89M462.41,28.48c1.89.22,2.97.1,4.38,1.17.76,3.43.39,25.39.32,30.11,2.26.24,4.55-.1,6.61.69,1.22,1.26.87.83.89,3.03-3.41.63-8.8.48-12.41.5-.45-9.77-.3-26.06.23-35.49"/>
  <path class="st1" d="M613.49,265.96c-.98-4.53.33-32.58,2.74-36.82,1.82,6.65,2.6,13.22,3.66,20.05.57,3.63,1.88,10.04,2.16,13.48-1.91.7-.39,1.32-3.2,2.36-1.48.55-4.62.58-5.36.93"/>
  <path class="st4" d="M250.29,126.71c.4-3.41,1.98-9.47,2.85-12.92,1.71.42,5.77.04,7.6-.16-1.89,9.01-4.29,17.79-6.22,26.72-.71-3.54-2.03-11.11-4.23-13.64"/>
  <path class="st8" d="M584.66,34.35c.63.02,3.41.15,3.51.69.6,3.32,0,10.32-.77,13.45-4.74-.04-4.04-12.14-2.74-14.14"/>
  <path class="st4" d="M791.69,267.49c1.04,2.01.69,3.94,1.15,6,.32,3.86,1.49,8.52,2.46,12.3-.52-.28-1.03-.59-1.53-.91-2.25-1.44-4.12-2.64-4.72-5.33.02-.03,2.4-11.1,2.65-12.05M45.98,293.5c.7-4.12.94-8.32,1.48-12.47.91,4.89,1.94,9.99,2.73,14.87-2.03-.51-2.85-.89-4.21-2.41"/>
  <path class="st2" d="M280.22,259.27c.76-4.73.58-6.86,1.86-11.8.47,4.46,1.17,11.17,2.89,15.26-2.31-1.05-3.01-1.63-4.75-3.46"/>
  <path class="st6" d="M668.2,276.52c-.16-.62,0-.38-.47-.79l.05-1.04c-.21.62-.45,1.08-.73,1.67-2.39.68-4.12.12-5.12-2.2.31-1.39.03-1,.94-1.74,3.15,1.2,4.16.99,5.46-2l-.13,6.1Z"/>
  <path class="st9" d="M131.78,385.2c5.49-2.27,7.15-2.7,13.18-3.38l.69.9c-3.36.18-9.68,1.95-13.87,2.48"/>
  <path class="st3" d="M684.89,77.23l.69.33c.68.88,4.73,3.3,6.04,4.25l-.03.51c-2.05.56-6.41-2.57-6.7-5.08M204.79,77.37l1.09-.09c-.69,1.81-5.49,6.03-7.26,4.69,1.27-1.67,4.3-2.62,6.17-4.6"/>
  <path class="st10" d="M769.28,381.74c4.95.85,6.83,1.2,11.5,3-2.86-.45-10.19-2.02-12.41-2.01l.92-.98Z"/>
</svg>